<svg width="26" height="27" viewBox="0 0 26 27" fill="none" xmlns="http://www.w3.org/2000/svg">
<path d="M25.2247 4.53298C24.9123 4.15767 24.5212 3.85581 24.0792 3.64886C23.6372 3.44191 23.155 3.33493 22.6671 3.33553H4.7111L4.66446 2.94527C4.569 2.13409 4.17956 1.38617 3.56997 0.843308C2.96037 0.300446 2.173 0.00038002 1.35714 0H1.11059C0.81604 0 0.533558 0.11714 0.325283 0.325651C0.117008 0.534162 0 0.816963 0 1.11184C0 1.40672 0.117008 1.68952 0.325283 1.89803C0.533558 2.10654 0.81604 2.22368 1.11059 2.22368H1.35714C1.62916 2.22372 1.8917 2.3237 2.09498 2.50466C2.29825 2.68563 2.42812 2.93498 2.45995 3.20544L3.98811 16.214C4.14676 17.5669 4.79604 18.8143 5.8127 19.7196C6.82937 20.6249 8.14265 21.125 9.50328 21.125H21.1011C21.3957 21.125 21.6782 21.0079 21.8864 20.7994C22.0947 20.5908 22.2117 20.308 22.2117 20.0132C22.2117 19.7183 22.0947 19.4355 21.8864 19.227C21.6782 19.0185 21.3957 18.9013 21.1011 18.9013H9.50328C8.81589 18.8994 8.14592 18.6846 7.58523 18.2865C7.02453 17.8884 6.60056 17.3264 6.37143 16.6776H19.6096C20.9115 16.6777 22.1721 16.2198 23.1711 15.3839C24.17 14.5481 24.8438 13.3874 25.0748 12.1046L25.9466 7.26366C26.0336 6.78336 26.0141 6.28977 25.8893 5.81787C25.7646 5.34597 25.5377 4.90731 25.2247 4.53298Z" fill="#444D68"/>
<path d="M7.58333 26.5417C8.77995 26.5417 9.75 25.5716 9.75 24.375C9.75 23.1784 8.77995 22.2083 7.58333 22.2083C6.38672 22.2083 5.41667 23.1784 5.41667 24.375C5.41667 25.5716 6.38672 26.5417 7.58333 26.5417Z" fill="#444D68"/>
<path d="M18.9583 26.5417C20.1549 26.5417 21.125 25.5716 21.125 24.375C21.125 23.1784 20.1549 22.2083 18.9583 22.2083C17.7617 22.2083 16.7917 23.1784 16.7917 24.375C16.7917 25.5716 17.7617 26.5417 18.9583 26.5417Z" fill="#444D68"/>
</svg>
