<svg width="17" height="20" viewBox="0 0 17 20" fill="none" xmlns="http://www.w3.org/2000/svg">
<path d="M11.4325 10.373V11.6769H8.89192V10.373H11.4325ZM11.4325 7.78461V9.07556H8.89192V7.78461H11.4325ZM7.62163 7.78461H5.08105V9.07556H7.62163V7.78461ZM7.62163 10.373H5.08105V11.6769H7.62163V10.373Z" fill="white"/>
<path fill-rule="evenodd" clip-rule="evenodd" d="M0 1.94615C0 1.43 0.200751 0.93499 0.558089 0.570015C0.915427 0.205041 1.40008 0 1.90543 0L12.3307 0L16.5138 4.27246V17.5154C16.5138 18.0315 16.313 18.5265 15.9557 18.8915C15.5983 19.2565 15.1137 19.4615 14.6083 19.4615H1.90543C1.40008 19.4615 0.915427 19.2565 0.558089 18.8915C0.200751 18.5265 0 18.0315 0 17.5154V1.94615ZM3.81087 5.18974H7.62174V3.89231H3.81087V5.18974ZM12.7029 6.48718H3.81087V12.9744H12.7029V6.48718ZM12.7029 15.5692H8.89203V14.2718H12.7029V15.5692Z" fill="white"/>
</svg>
