<svg width="24" height="26" viewBox="0 0 24 26" fill="none" xmlns="http://www.w3.org/2000/svg">
<path d="M23.8313 21.0763L23.5594 20.8364C22.788 20.1491 22.1129 19.361 21.5521 18.4933C20.9397 17.2957 20.5727 15.9879 20.4725 14.6467V10.6961C20.4778 8.58936 19.7136 6.55319 18.3235 4.97017C16.9334 3.38714 15.013 2.36623 12.9233 2.09923V1.06761C12.9233 0.784463 12.8108 0.512912 12.6106 0.312696C12.4104 0.11248 12.1388 0 11.8557 0C11.5725 0 11.301 0.11248 11.1008 0.312696C10.9005 0.512912 10.7881 0.784463 10.7881 1.06761V2.11523C8.71703 2.40147 6.81989 3.42855 5.44804 5.00626C4.07618 6.58396 3.32257 8.60538 3.32679 10.6961V14.6467C3.22663 15.9879 2.85958 17.2957 2.24718 18.4933C1.69609 19.3588 1.03178 20.1468 0.271901 20.8364L0 21.0763V23.3315H23.8313V21.0763Z" fill="#444D68"/>
<path d="M9.81348 24.1712C9.8836 24.6781 10.1348 25.1425 10.5206 25.4787C10.9065 25.8148 11.401 26 11.9127 26C12.4245 26 12.9189 25.8148 13.3048 25.4787C13.6906 25.1425 13.9418 24.6781 14.0119 24.1712H9.81348Z" fill="#444D68"/>
</svg>
